Coordinates
version=1
nRows=16
nColumns=33
inDegrees=yes

Units are S.I. units (second, meters, Newtons, ...)
Angles are in degrees.

endheader
time	ground_thorax_rot_x	ground_thorax_rot_y	ground_thorax_rot_z	ground_thorax_tx	ground_thorax_ty	ground_thorax_tz	clav_prot_r	clav_elev_r	scapula_abduction_r	scapula_elevation_r	scapula_upward_rot_r	scapula_winging_r	shoulder_elv_r	plane_of_elev_r	axial_rot_r	elbow_flexion_r	pro_sup_r	wrist_flex_r	wrist_dev_r	clav_prot_l	clav_elev_l	scapula_abduction_l	scapula_elevation_l	scapula_upward_rot_l	scapula_winging_l	shoulder_elv_l	plane_of_elev_l	axial_rot_l	elbow_flexion_l	pro_sup_l	wrist_flex_l	wrist_dev_l
      8.68000000	    -40.97310501	     -5.83180159	      2.14152447	    -58.31820406	    807.66406844	      8.37804042	      5.47065528	    -45.00000000	     45.00000000	    -45.00000000	    -10.16243245	  -4411.55738465	   -836.03782233	    150.45240477	   -107.41093849	   2171.80337124	     32.26950490	     17.95041489	      9.39635967	     16.95603491	     42.10180721	    -45.00000000	    -41.64580584	    -28.33940189	    799.78136646	  -2093.87280740	     24.32414925	    -24.36956227	   1445.65172014	     16.62909605	     12.75794642	    -18.86024505
      8.69000000	    -40.71928005	     -5.83101837	      1.91503455	    -56.27757610	    805.29251069	      8.59924232	      5.56939543	    -45.00000000	     45.00000000	    -45.00000000	    -10.62727047	  -4410.93353653	   -836.11681860	    150.74322437	   -107.59031415	   2171.16411630	     26.60559754	     17.79018486	      9.72620188	     16.78206299	     42.10513252	    -45.00000000	    -41.24577952	    -27.54596093	    799.55872933	  -2093.92453805	     23.96991429	    -24.71288143	   1445.77897739	     19.83476289	     12.14742835	    -19.16579354
      8.70000000	    -40.44001932	     -6.22935361	      2.15279068	    -54.56572862	    803.19937249	      8.72824648	      5.83262954	    -45.00000000	     45.00000000	    -45.00000000	    -11.08330441	  -4410.68922076	   -836.32418748	    150.98640239	   -106.62949621	   2170.77951247	     23.33456585	     17.54815490	      9.99231794	     16.71822295	     41.75839610	    -45.00000000	    -40.87610698	    -27.73662451	    799.70666478	  -2094.14525916	     24.15447804	    -25.08062546	   1445.73934980	     21.93124093	     11.59648753	    -19.16128313
      8.71000000	    -40.10509517	     -6.72472801	      2.56492643	    -53.21588429	    801.36880110	      8.75865517	      6.34062574	    -45.00000000	     45.00000000	    -45.00000000	    -11.84553626	  -4410.84474741	   -836.59920529	    150.85848028	   -105.70068337	   2170.54002693	     21.66150146	     17.26661697	      9.86389811	     16.08627015	     41.01753311	    -45.00000000	    -40.37744107	    -28.32106575	    799.88782906	  -2094.13542616	     24.39079923	    -25.63940532	   1445.73593697	     23.42125173	     11.31193088	    -19.13903814
      8.72000000	    -39.83515325	     -6.76587131	      2.44144439	    -52.25002573	    799.77661522	      8.68630375	      6.25869347	    -45.00000000	     45.00000000	    -45.00000000	    -11.92587503	  -4410.67399102	   -836.75579293	    151.01631873	   -105.02301907	   2170.31394789	     20.43614080	     17.02781398	      9.88493469	     16.01568965	     40.64767317	    -45.00000000	    -39.93218875	    -27.86370510	    799.81084788	  -2094.08833827	     24.18604899	    -25.61964072	   1445.71490619	     24.77409022	     11.09167694	    -19.15384117
      8.73000000	    -39.57694803	     -6.96826698	      2.53816331	    -51.68131822	    798.38098327	      8.50947977	      6.13089405	    -45.00000000	     45.00000000	    -45.00000000	    -12.13456522	  -4410.34918984	   -836.66677185	    151.14169419	   -104.29502682	   2170.38557145	     19.64069116	     16.91512005	      9.95696485	     15.99803429	     39.94683731	    -45.00000000	    -39.54805320	    -27.37323608	    799.83787971	  -2094.30937432	     24.00032059	    -25.41128789	   1445.77709107	     25.86258107	     10.81495799	    -19.16966943
      8.74000000	    -39.27430232	     -7.04076034	      2.32552979	    -51.54856464	    797.22290045	      8.24631802	      6.13950949	    -45.00000000	     45.00000000	    -45.00000000	    -12.41578715	  -4410.88922573	   -837.01603630	    150.76834401	   -103.95065180	   2170.16175196	     19.15602926	     16.92733615	     10.14408220	     15.82154012	     40.19020967	    -45.00000000	    -38.98012726	    -27.13203213	    800.18591998	  -2094.24125792	     23.95144400	    -25.22718753	   1445.65657556	     26.75300432	     10.53090592	    -19.10305800
      8.75000000	    -39.23404768	     -6.80990642	      2.05033074	    -51.83163919	    796.20933514	      7.90478592	      6.20189252	    -45.00000000	     45.00000000	    -45.00000000	    -12.05694541	  -4410.42075285	   -836.99226732	    151.48872541	   -103.59058938	   2169.96643628	     18.65432999	     16.77973417	     10.03540484	     15.84350807	     40.32934894	    -45.00000000	    -39.16890249	    -27.07654928	    799.93064999	  -2094.31447914	     24.09502007	    -25.09330730	   1445.50934174	     27.67167370	     10.54084071	    -19.14800624
      8.76000000	    -39.01174885	     -7.01349165	      2.02768662	    -52.53402282	    795.33774443	      7.51081199	      6.06465005	    -45.00000000	     45.00000000	    -45.00000000	    -12.27988785	  -4410.49898460	   -836.96625521	    151.49654752	   -103.13822774	   2170.02527517	     18.39812778	     16.89159565	     10.19682960	     15.77328827	     39.82420346	    -45.00000000	    -38.80463074	    -26.84486707	    800.25335570	  -2094.49530805	     24.05153225	    -24.54287350	   1445.33680865	     28.08095553	     10.51517000	    -19.15408941
      8.77000000	    -38.94970077	     -6.91043118	      1.85126685	    -53.64271909	    794.58036384	      7.08781383	      6.13714860	    -45.00000000	     45.00000000	    -45.00000000	    -12.55239385	  -4410.82534003	   -837.24743059	    151.32209985	   -102.98490885	   2169.88363497	     18.24769562	     16.88451223	     10.17696399	     15.65212400	     40.15548705	    -45.00000000	    -38.88857828	    -26.90984475	    800.17236452	  -2094.54699101	     24.07628159	    -24.34004379	   1445.27171560	     28.26723055	     10.56671236	    -19.21096070
      8.78000000	    -38.86221500	     -7.09441440	      1.89808239	    -55.12704657	    793.91647799	      6.66156280	      6.20124728	    -45.00000000	     45.00000000	    -45.00000000	    -12.89692295	  -4410.60130919	   -837.14665863	    151.69780786	   -102.88024244	   2169.72307177	     18.16776138	     16.90404229	     10.23933316	     15.77424867	     40.10186137	    -45.00000000	    -38.92889561	    -27.25978830	    800.16853691	  -2094.56540611	     24.03194908	    -24.03361446	   1445.09573429	     28.14364256	     10.66552178	    -19.22881292
      8.79000000	    -38.80434507	     -7.22628760	      1.93705495	    -56.96522465	    793.32284060	      6.24910114	      6.29764981	    -45.00000000	     45.00000000	    -45.00000000	    -13.42309492	  -4410.70882007	   -837.08230177	    151.80306246	   -102.74917254	   2169.77704913	     18.13418764	     17.02537988	     10.30539381	     15.82517525	     40.16740865	    -45.00000000	    -38.92304793	    -27.63579529	    800.28575970	  -2094.53556920	     24.04225389	    -23.73214644	   1445.02198282	     27.70143357	     10.76600517	    -19.26959159
      8.80000000	    -38.74088612	     -7.27320785	      1.86452925	    -59.12607907	    792.78541332	      5.86490991	      6.49555410	    -45.00000000	     45.00000000	    -45.00000000	    -13.79533797	  -4410.87948573	   -837.05840815	    151.87733408	   -102.59397690	   2169.74928568	     18.10891626	     17.10436155	     10.34533870	     15.91464676	     40.21519496	    -45.00000000	    -38.93678401	    -27.96035785	    800.38161311	  -2094.54432407	     24.05304108	    -23.78425418	   1444.89073429	     27.04905888	     10.85406137	    -19.26934167
      8.81000000	    -38.69679638	     -7.32774943	      1.76910866	    -61.58389119	    792.29329476	      5.51603084	      6.49444008	    -45.00000000	     45.00000000	    -45.00000000	    -14.18106743	  -4410.98187324	   -836.95784624	    152.00082157	   -102.41843278	   2169.78530275	     18.10606527	     17.24353943	     10.42244132	     15.81574555	     40.23338496	    -45.00000000	    -38.90745827	    -27.88410883	    800.64432109	  -2094.64828131	     23.87386798	    -24.13981065	   1444.82315932	     26.36092801	     11.01732331	    -19.33307524
      8.82000000	    -38.63142672	     -7.31422619	      1.58133082	    -64.31817302	    791.83901011	      5.20373762	      6.54052276	    -45.00000000	     45.00000000	    -45.00000000	    -14.50332380	  -4411.17752335	   -836.89028371	    152.02682467	   -102.13820077	   2169.79128615	     18.12422571	     17.36987680	     10.50653793	     15.76447041	     40.29311764	    -45.00000000	    -38.85656772	    -27.73459699	    800.93880975	  -2094.77670217	     23.65427536	    -24.86846278	   1444.80923679	     25.66868322	     11.10355159	    -19.37738672
      8.83000000	    -38.62657804	     -7.40493057	      1.62609056	    -67.30935786	    791.41797649	      4.92489477	      6.94723458	    -45.00000000	     45.00000000	    -45.00000000	    -14.93072123	  -4411.46888456	   -836.93180284	    152.16475047	   -101.73703490	   2169.68708755	     18.11074017	     17.37453626	     10.50786094	     15.94871557	     40.27502921	    -45.00000000	    -38.98982747	    -28.62036957	    800.98901421	  -2094.69191813	     23.76381714	    -25.74820336	   1444.70887875	     24.88794083	     10.99259906	    -19.29124535
